<?xml version="1.0" encoding="utf-8"?>
<!-- Generator: Adobe Illustrator 27.5.0, SVG Export Plug-In . SVG Version: 6.00 Build 0)  -->
<svg version="1.1" xmlns="http://www.w3.org/2000/svg" xmlns:xlink="http://www.w3.org/1999/xlink" x="0px" y="0px"
	 viewBox="0 0 750 500" style="enable-background:new 0 0 750 500;" xml:space="preserve">
<g id="Background_Simple">
	<g>
		<path style="fill:#92E3A9;" d="M599.433,30.741C521.546,20.6,477.285,63.799,372.617,68.496
			c-103.993-8.147-143.643-52.734-222.46-45.184C65.359,31.437-0.321,141.939,18.369,252.475
			c18.69,110.536,134.517,172.328,193.733,171.946c47.325-0.305,89.13-19.567,143.092-24.17
			c53.385,6.378,93.096,26.988,140.307,28.856c59.074,2.338,181.185-55.52,211.443-165.247
			C737.201,154.133,683.232,41.653,599.433,30.741z"/>
		<path style="opacity:0.7;fill:#FFFFFF;" d="M599.433,30.741C521.546,20.6,477.285,63.799,372.617,68.496
			c-103.993-8.147-143.643-52.734-222.46-45.184C65.359,31.437-0.321,141.939,18.369,252.475
			c18.69,110.536,134.517,172.328,193.733,171.946c47.325-0.305,89.13-19.567,143.092-24.17
			c53.385,6.378,93.096,26.988,140.307,28.856c59.074,2.338,181.185-55.52,211.443-165.247
			C737.201,154.133,683.232,41.653,599.433,30.741z"/>
	</g>
</g>
<g id="Wall">
	<g style="opacity:0.3;">
		<g>
			
				<rect x="47.79" y="60.815" style="fill:none;stroke:#000000;stroke-linecap:round;stroke-linejoin:round;stroke-miterlimit:10;" width="130.296" height="140.493"/>
			
				<rect x="50.94" y="64.212" style="fill:none;stroke:#000000;stroke-linecap:round;stroke-linejoin:round;stroke-miterlimit:10;" width="123.995" height="133.699"/>
			<path style="fill:none;stroke:#000000;stroke-linecap:round;stroke-linejoin:round;stroke-miterlimit:10;" d="M61.152,94.88
				v69.484c10.438,0,18.9,8.462,18.9,18.9c0,0.019-0.003,0.038-0.003,0.057h66.255c0-0.019-0.003-0.038-0.003-0.057
				c0-10.088,7.91-18.306,17.863-18.847V94.828c-9.953-0.541-17.863-8.759-17.863-18.847H80.052
				C80.052,86.419,71.59,94.88,61.152,94.88z"/>
			<path style="fill:none;stroke:#000000;stroke-linecap:round;stroke-linejoin:round;stroke-miterlimit:10;" d="M64.862,97.384
				v64.479c9.686,0,17.538,7.852,17.538,17.538c0,0.018-0.003,0.035-0.003,0.053h61.483c0-0.018-0.003-0.035-0.003-0.053
				c0-9.361,7.34-16.987,16.576-17.49V97.336c-9.236-0.502-16.576-8.128-16.576-17.49H82.4C82.4,89.532,74.548,97.384,64.862,97.384
				z"/>
		</g>
		<g>
			
				<rect x="221.897" y="60.815" style="fill:none;stroke:#000000;stroke-linecap:round;stroke-linejoin:round;stroke-miterlimit:10;" width="130.296" height="140.493"/>
			
				<rect x="225.047" y="64.212" style="fill:none;stroke:#000000;stroke-linecap:round;stroke-linejoin:round;stroke-miterlimit:10;" width="123.995" height="133.699"/>
			<path style="fill:none;stroke:#000000;stroke-linecap:round;stroke-linejoin:round;stroke-miterlimit:10;" d="M235.259,94.88
				v69.484c10.438,0,18.9,8.462,18.9,18.9c0,0.019-0.003,0.038-0.003,0.057h66.255c0-0.019-0.003-0.038-0.003-0.057
				c0-10.088,7.91-18.306,17.863-18.847V94.828c-9.953-0.541-17.863-8.759-17.863-18.847h-66.249
				C254.159,86.419,245.697,94.88,235.259,94.88z"/>
			<path style="fill:none;stroke:#000000;stroke-linecap:round;stroke-linejoin:round;stroke-miterlimit:10;" d="M238.969,97.384
				v64.479c9.686,0,17.538,7.852,17.538,17.538c0,0.018-0.003,0.035-0.003,0.053h61.483c0-0.018-0.003-0.035-0.003-0.053
				c0-9.361,7.34-16.987,16.576-17.49V97.336c-9.236-0.502-16.576-8.128-16.576-17.49h-61.477
				C256.508,89.532,248.655,97.384,238.969,97.384z"/>
		</g>
		<g>
			
				<rect x="396.004" y="60.815" style="fill:none;stroke:#000000;stroke-linecap:round;stroke-linejoin:round;stroke-miterlimit:10;" width="130.296" height="140.493"/>
			
				<rect x="399.154" y="64.212" style="fill:none;stroke:#000000;stroke-linecap:round;stroke-linejoin:round;stroke-miterlimit:10;" width="123.995" height="133.699"/>
			<path style="fill:none;stroke:#000000;stroke-linecap:round;stroke-linejoin:round;stroke-miterlimit:10;" d="M409.366,94.88
				v69.484c10.438,0,18.9,8.462,18.9,18.9c0,0.019-0.003,0.038-0.003,0.057h66.255c0-0.019-0.003-0.038-0.003-0.057
				c0-10.088,7.91-18.306,17.863-18.847V94.828c-9.953-0.541-17.863-8.759-17.863-18.847h-66.249
				C428.266,86.419,419.804,94.88,409.366,94.88z"/>
			<path style="fill:none;stroke:#000000;stroke-linecap:round;stroke-linejoin:round;stroke-miterlimit:10;" d="M413.076,97.384
				v64.479c9.686,0,17.538,7.852,17.538,17.538c0,0.018-0.003,0.035-0.003,0.053h61.483c0-0.018-0.003-0.035-0.003-0.053
				c0-9.361,7.34-16.987,16.576-17.49V97.336c-9.236-0.502-16.576-8.128-16.576-17.49h-61.477
				C430.615,89.532,422.762,97.384,413.076,97.384z"/>
		</g>
		<g>
			
				<rect x="47.79" y="222.939" style="fill:none;stroke:#000000;stroke-linecap:round;stroke-linejoin:round;stroke-miterlimit:10;" width="130.296" height="140.493"/>
			
				<rect x="50.94" y="226.336" style="fill:none;stroke:#000000;stroke-linecap:round;stroke-linejoin:round;stroke-miterlimit:10;" width="123.995" height="133.699"/>
			<path style="fill:none;stroke:#000000;stroke-linecap:round;stroke-linejoin:round;stroke-miterlimit:10;" d="M61.152,257.004
				v69.484c10.438,0,18.9,8.462,18.9,18.9c0,0.019-0.003,0.038-0.003,0.057h66.255c0-0.019-0.003-0.038-0.003-0.057
				c0-10.088,7.91-18.306,17.863-18.847v-69.588c-9.953-0.541-17.863-8.759-17.863-18.847H80.052
				C80.052,248.542,71.59,257.004,61.152,257.004z"/>
			<path style="fill:none;stroke:#000000;stroke-linecap:round;stroke-linejoin:round;stroke-miterlimit:10;" d="M64.862,259.509
				v64.479c9.686,0,17.538,7.852,17.538,17.538c0,0.018-0.003,0.035-0.003,0.053h61.483c0-0.018-0.003-0.035-0.003-0.053
				c0-9.361,7.34-16.987,16.576-17.49V259.46c-9.236-0.502-16.576-8.128-16.576-17.49H82.4
				C82.4,251.656,74.548,259.509,64.862,259.509z"/>
		</g>
		<g>
			
				<rect x="221.897" y="222.939" style="fill:none;stroke:#000000;stroke-linecap:round;stroke-linejoin:round;stroke-miterlimit:10;" width="130.296" height="140.493"/>
			
				<rect x="225.047" y="226.336" style="fill:none;stroke:#000000;stroke-linecap:round;stroke-linejoin:round;stroke-miterlimit:10;" width="123.995" height="133.699"/>
			<path style="fill:none;stroke:#000000;stroke-linecap:round;stroke-linejoin:round;stroke-miterlimit:10;" d="M235.259,257.004
				v69.484c10.438,0,18.9,8.462,18.9,18.9c0,0.019-0.003,0.038-0.003,0.057h66.255c0-0.019-0.003-0.038-0.003-0.057
				c0-10.088,7.91-18.306,17.863-18.847v-69.588c-9.953-0.541-17.863-8.759-17.863-18.847h-66.249
				C254.159,248.542,245.697,257.004,235.259,257.004z"/>
			<path style="fill:none;stroke:#000000;stroke-linecap:round;stroke-linejoin:round;stroke-miterlimit:10;" d="M238.969,259.509
				v64.479c9.686,0,17.538,7.852,17.538,17.538c0,0.018-0.003,0.035-0.003,0.053h61.483c0-0.018-0.003-0.035-0.003-0.053
				c0-9.361,7.34-16.987,16.576-17.49V259.46c-9.236-0.502-16.576-8.128-16.576-17.49h-61.477
				C256.508,251.656,248.655,259.509,238.969,259.509z"/>
		</g>
		<g>
			
				<rect x="396.004" y="222.939" style="fill:none;stroke:#000000;stroke-linecap:round;stroke-linejoin:round;stroke-miterlimit:10;" width="130.296" height="140.493"/>
			
				<rect x="399.154" y="226.336" style="fill:none;stroke:#000000;stroke-linecap:round;stroke-linejoin:round;stroke-miterlimit:10;" width="123.995" height="133.699"/>
			<path style="fill:none;stroke:#000000;stroke-linecap:round;stroke-linejoin:round;stroke-miterlimit:10;" d="M409.366,257.004
				v69.484c10.438,0,18.9,8.462,18.9,18.9c0,0.019-0.003,0.038-0.003,0.057h66.255c0-0.019-0.003-0.038-0.003-0.057
				c0-10.088,7.91-18.306,17.863-18.847v-69.588c-9.953-0.541-17.863-8.759-17.863-18.847h-66.249
				C428.266,248.542,419.804,257.004,409.366,257.004z"/>
			<path style="fill:none;stroke:#000000;stroke-linecap:round;stroke-linejoin:round;stroke-miterlimit:10;" d="M413.076,259.509
				v64.479c9.686,0,17.538,7.852,17.538,17.538c0,0.018-0.003,0.035-0.003,0.053h61.483c0-0.018-0.003-0.035-0.003-0.053
				c0-9.361,7.34-16.987,16.576-17.49V259.46c-9.236-0.502-16.576-8.128-16.576-17.49h-61.477
				C430.615,251.656,422.762,259.509,413.076,259.509z"/>
		</g>
		<g>
			
				<rect x="567.996" y="60.815" style="fill:none;stroke:#000000;stroke-linecap:round;stroke-linejoin:round;stroke-miterlimit:10;" width="130.296" height="140.493"/>
			
				<rect x="571.146" y="64.212" style="fill:none;stroke:#000000;stroke-linecap:round;stroke-linejoin:round;stroke-miterlimit:10;" width="123.995" height="133.699"/>
			<path style="fill:none;stroke:#000000;stroke-linecap:round;stroke-linejoin:round;stroke-miterlimit:10;" d="M581.359,94.88
				v69.484c10.438,0,18.9,8.462,18.9,18.9c0,0.019-0.003,0.038-0.003,0.057h66.255c0-0.019-0.003-0.038-0.003-0.057
				c0-10.088,7.91-18.306,17.863-18.847V94.828c-9.953-0.541-17.863-8.759-17.863-18.847h-66.249
				C600.258,86.419,591.797,94.88,581.359,94.88z"/>
			<path style="fill:none;stroke:#000000;stroke-linecap:round;stroke-linejoin:round;stroke-miterlimit:10;" d="M585.069,97.384
				v64.479c9.686,0,17.538,7.852,17.538,17.538c0,0.018-0.003,0.035-0.003,0.053h61.483c0-0.018-0.003-0.035-0.003-0.053
				c0-9.361,7.34-16.987,16.576-17.49V97.336c-9.236-0.502-16.576-8.128-16.576-17.49h-61.477
				C602.607,89.532,594.755,97.384,585.069,97.384z"/>
		</g>
		<g>
			
				<rect x="567.996" y="222.939" style="fill:none;stroke:#000000;stroke-linecap:round;stroke-linejoin:round;stroke-miterlimit:10;" width="130.296" height="140.493"/>
			
				<rect x="571.146" y="226.336" style="fill:none;stroke:#000000;stroke-linecap:round;stroke-linejoin:round;stroke-miterlimit:10;" width="123.995" height="133.699"/>
			<path style="fill:none;stroke:#000000;stroke-linecap:round;stroke-linejoin:round;stroke-miterlimit:10;" d="M581.359,257.004
				v69.484c10.438,0,18.9,8.462,18.9,18.9c0,0.019-0.003,0.038-0.003,0.057h66.255c0-0.019-0.003-0.038-0.003-0.057
				c0-10.088,7.91-18.306,17.863-18.847v-69.588c-9.953-0.541-17.863-8.759-17.863-18.847h-66.249
				C600.258,248.542,591.797,257.004,581.359,257.004z"/>
			<path style="fill:none;stroke:#000000;stroke-linecap:round;stroke-linejoin:round;stroke-miterlimit:10;" d="M585.069,259.509
				v64.479c9.686,0,17.538,7.852,17.538,17.538c0,0.018-0.003,0.035-0.003,0.053h61.483c0-0.018-0.003-0.035-0.003-0.053
				c0-9.361,7.34-16.987,16.576-17.49V259.46c-9.236-0.502-16.576-8.128-16.576-17.49h-61.477
				C602.607,251.656,594.755,259.509,585.069,259.509z"/>
		</g>
	</g>
</g>
<g id="Plant">
	<g>
		<path style="fill:none;stroke:#263238;stroke-miterlimit:10;" d="M621.594,340.659c0,0,11.672,18.653,16.555,36.697
			c3.472,12.827,3.628,38.285,3.628,38.285s0.235-75.533,17.618-104.78"/>
		<path style="fill:none;stroke:#263238;stroke-miterlimit:10;" d="M668.776,245.469c0,0-16.831,27.04-21.521,55.183
			c-4.691,28.143-5.794,97.95-5.794,97.95c-0.276-14.624-2.483-68.151-7.174-91.328c-4.691-23.177-13.244-40.008-13.244-40.008"/>
		<g>
			<path style="fill:#B0B0B0;" d="M624.693,275.478c0,0,14.086,0.652,20.662-9.922c6.576-10.574,2.252-20.682-3.93-21.421
				c-6.182-0.739-8.867,6.907-11.158,3.239c-2.291-3.667,6.576-10.574-3.361-16.927c-9.937-6.352-14.568,2.758-17.719-0.496
				c-3.152-3.254-0.88-11.761-7.442-15.497c-6.562-3.736-9.626,0.914-13.259,1.07c-3.633,0.156-15.069-6.007-19.631-1.167
				c-4.562,4.84,6.357,16.547,1.226,16.893c-5.131,0.345-7.213,10.351-3.045,16.825c4.168,6.474,17.583,9.037,14.966,12.413
				c-2.617,3.376-15.428,3.171-10.209,10.73c5.219,7.559,22.938,8.055,25.487,8.95c2.549,0.895-8.162,2.86-6.352,9.937
				c1.809,7.077,16.533,7.953,26.003,3.405C626.4,288.961,624.693,275.478,624.693,275.478z"/>
			<path style="fill:none;stroke:#263238;stroke-miterlimit:10;" d="M584.051,227.787c0,0,29.919,19.556,40.642,47.691"/>
			<polyline style="fill:none;stroke:#263238;stroke-miterlimit:10;" points="582.583,241.484 602.64,243.441 597.748,226.808 			
				"/>
			<polyline style="fill:none;stroke:#263238;stroke-miterlimit:10;" points="598.727,264.477 618.784,264.477 620.252,246.376 			
				"/>
		</g>
		<g>
			<path style="fill:#B0B0B0;" d="M665.952,251.516c0,0-11.435,0.529-16.773-8.055c-5.338-8.584-1.828-16.789,3.19-17.389
				c5.018-0.6,7.198,5.607,9.058,2.63c1.86-2.977-5.338-8.584,2.728-13.741s11.826,2.239,14.384-0.403
				c2.559-2.641,0.715-9.547,6.041-12.58c5.326-3.032,7.814,0.742,10.763,0.869c2.949,0.126,12.232-4.876,15.936-0.948
				c3.704,3.929-5.161,13.432-0.995,13.713c4.166,0.28,5.856,8.402,2.472,13.658c-3.384,5.255-14.273,7.336-12.149,10.076
				c2.124,2.74,12.524,2.574,8.288,8.71c-4.237,6.136-18.621,6.538-20.69,7.265c-2.069,0.726,6.625,2.322,5.157,8.067
				c-1.469,5.745-13.421,6.456-21.108,2.764C664.566,262.461,665.952,251.516,665.952,251.516z"/>
			<path style="fill:none;stroke:#263238;stroke-miterlimit:10;" d="M698.944,212.801c0,0-24.287,15.875-32.992,38.715"/>
			<polyline style="fill:none;stroke:#263238;stroke-miterlimit:10;" points="700.136,223.921 683.854,225.509 687.825,212.007 			
				"/>
			<polyline style="fill:none;stroke:#263238;stroke-miterlimit:10;" points="687.031,242.585 670.749,242.585 669.557,227.892 			
				"/>
		</g>
		<g>
			<path style="fill:#B0B0B0;" d="M628.546,353.908c0,0,9.276,0.429,13.607-6.535c4.331-6.964,1.483-13.62-2.588-14.107
				c-4.071-0.487-5.839,4.548-7.348,2.133c-1.509-2.415,4.331-6.964-2.213-11.147c-6.544-4.183-9.594,1.816-11.669-0.327
				c-2.076-2.143-0.58-7.745-4.901-10.205c-4.321-2.46-6.339,0.602-8.732,0.705c-2.393,0.102-9.923-3.956-12.928-0.769
				c-3.005,3.187,4.187,10.897,0.807,11.125c-3.38,0.227-4.75,6.816-2.005,11.08c2.745,4.263,11.579,5.952,9.856,8.175
				c-1.723,2.223-10.161,2.089-6.724,7.066c3.437,4.978,15.106,5.305,16.785,5.894c1.678,0.589-5.375,1.883-4.183,6.544
				c1.191,4.661,10.888,5.237,17.124,2.242C629.67,362.787,628.546,353.908,628.546,353.908z"/>
			<path style="fill:none;stroke:#263238;stroke-miterlimit:10;" d="M601.781,322.501c0,0,19.703,12.879,26.765,31.408"/>
			<polyline style="fill:none;stroke:#263238;stroke-miterlimit:10;" points="600.814,331.521 614.023,332.81 610.802,321.856 			
				"/>
			<polyline style="fill:none;stroke:#263238;stroke-miterlimit:10;" points="611.446,346.663 624.655,346.663 625.621,334.743 			
				"/>
		</g>
		<g>
			<path style="fill:#B0B0B0;" d="M656.055,317.582c0,0-13.975-1.879-18.554-13.459c-4.578-11.58,1.484-20.751,7.699-20.372
				c6.215,0.379,7.488,8.382,10.398,5.183c2.91-3.198-4.578-11.58,6.335-16.052c10.913-4.472,13.839,5.319,17.522,2.682
				c3.683-2.638,2.97-11.414,10.094-13.915c7.124-2.501,9.307,2.622,12.854,3.425c3.547,0.803,15.9-3.214,19.523,2.363
				c3.623,5.578-9.215,15.143-4.228,16.401c4.987,1.258,5.245,11.474-0.014,17.098c-5.259,5.624-18.916,5.746-16.946,9.535
				c1.971,3.789,14.612,5.88,8.125,12.383c-6.487,6.503-24.009,3.821-26.677,4.246c-2.668,0.425,7.518,4.274,4.472,10.913
				c-3.046,6.639-17.689,4.867-26.192-1.302C651.963,330.542,656.055,317.582,656.055,317.582z"/>
			<path style="fill:none;stroke:#263238;stroke-miterlimit:10;" d="M704.574,277.931c0,0-32.935,13.888-48.519,39.651"/>
			<polyline style="fill:none;stroke:#263238;stroke-miterlimit:10;" points="703.567,291.67 683.483,290.007 691.272,274.517 			
				"/>
			<polyline style="fill:none;stroke:#263238;stroke-miterlimit:10;" points="683.57,311.403 663.837,307.815 665.631,289.744 			
				"/>
		</g>
		<path style="fill:#263238;stroke:#263238;stroke-miterlimit:10;" d="M618.885,380.198c-1,2.69-1.573,25.575-1.573,28.613
			c0,20.125,11.102,24.797,24.797,24.797c13.695,0,24.797-3.594,24.797-24.797c0-3.038-0.573-25.923-1.573-28.613H618.885z"/>
	</g>
</g>
<g id="Character_1">
	<g>
		<g>
			<path style="fill:#FFFFFF;stroke:#263238;stroke-linecap:round;stroke-linejoin:round;stroke-miterlimit:10;" d="M103.44,165.298
				l-3.301-28.854c0,0,6.708-6.814,18.207-6.069c11.499,0.745,14.054,5.324,14.054,5.324l-0.091,25.779
				C132.309,161.478,117.495,160.4,103.44,165.298z"/>
			<g>
				<path style="fill:#FFFFFF;stroke:#263238;stroke-linecap:round;stroke-linejoin:round;stroke-miterlimit:10;" d="
					M107.912,171.154l0.532,16.929c0,0-1.491,2.449,3.94,6.282c5.43,3.833,8.198,4.152,10.967,3.833
					c2.768-0.319,6.282-6.175,6.282-6.175l0.745-10.86c0,0-6.708,2.449-12.138,1.597
					C112.81,181.908,107.912,171.154,107.912,171.154z"/>
				<path style="fill:#263238;stroke:#263238;stroke-linecap:round;stroke-linejoin:round;stroke-miterlimit:10;" d="M118.24,182.76
					c-3.539-0.555-6.852-5.316-8.73-8.565l-1.539-1.174l0.474,15.063c0,0-0.013,0.024-0.03,0.06l16.648-2.086l-4.098-3.126
					C120.045,182.943,119.126,182.899,118.24,182.76z"/>
			</g>
			<g>
				<path style="fill:#FFFFFF;stroke:#263238;stroke-linecap:round;stroke-linejoin:round;stroke-miterlimit:10;" d="
					M103.322,166.035c0,0,6.275-5.454,18.08-5.304c0,0,6.799-0.374,10.907,0.747c0,0,0.598,11.431,0,15.091
					c-0.598,3.661-0.075,8.592-7.247,9.488c-7.172,0.896-12.252-2.391-13.821-4.483c-1.569-2.092-3.138-7.247-3.138-7.247
					s-2.69-2.391-3.511-3.885S103.322,166.035,103.322,166.035z"/>
				<path style="fill:#263238;stroke:#263238;stroke-linecap:round;stroke-linejoin:round;stroke-miterlimit:10;" d="
					M104.742,166.857c0,0,3.511-0.224,4.781-1.494c1.27-1.27,0.822-2.764,0.822-2.764s-5.155,1.569-7.023,3.437L104.742,166.857z"/>
				<path style="fill:#FFFFFF;stroke:#263238;stroke-linecap:round;stroke-linejoin:round;stroke-miterlimit:10;" d="
					M107.058,167.978c0,0-2.465-2.988-4.781-2.465c-2.316,0.523-2.092,6.35-0.149,7.77c1.943,1.42,4.184,0.822,5.304-0.523"/>
				<polyline style="fill:none;stroke:#263238;stroke-linecap:round;stroke-linejoin:round;stroke-miterlimit:10;" points="
					126.034,164.392 126.183,172.983 122.896,172.61 				"/>
				<path style="fill:none;stroke:#263238;stroke-linecap:round;stroke-linejoin:round;stroke-miterlimit:10;" d="M118.787,174.776
					c0,0,2.615,1.868,5.528,1.718c2.914-0.149,4.109-1.718,4.109-1.718"/>
				<ellipse style="fill:#263238;" cx="118.04" cy="166.297" rx="0.896" ry="1.233"/>
				<ellipse style="fill:#263238;" cx="129.396" cy="166.297" rx="0.896" ry="1.233"/>
				<path style="fill:none;stroke:#263238;stroke-linecap:round;stroke-linejoin:round;stroke-miterlimit:10;" d="M114.902,164.018
					c0,0,2.241-1.195,5.529-1.121"/>
				<path style="fill:none;stroke:#263238;stroke-linecap:round;stroke-linejoin:round;stroke-miterlimit:10;" d="M127.155,162.673
					c0,0,2.465-0.523,3.885,0.747"/>
				<path style="fill:none;stroke:#263238;stroke-linecap:round;stroke-linejoin:round;stroke-miterlimit:10;" d="M132.683,164.392
					c0,0,0.672-0.299,0.896,2.241c0.224,2.54-0.971,4.856-0.971,4.856L132.683,164.392z"/>
			</g>
		</g>
		<path style="fill:#263238;stroke:#263238;stroke-linecap:round;stroke-linejoin:round;stroke-miterlimit:10;" d="M91.154,415.438
			l-3.502,8.478c0,0-3.87,4.976-4.423,7.004c-0.553,2.027,2.765,2.58,2.765,2.58h20.642c0,0,1.29-0.553,1.29-2.765
			c0-2.212-0.553-5.529-0.553-5.529l0.737-6.819C108.11,418.387,98.895,407.697,91.154,415.438z"/>
		<path style="fill:#FFFFFF;stroke:#263238;stroke-linecap:round;stroke-linejoin:round;stroke-miterlimit:10;" d="M87.1,319.598
			c0,0,0.737,30.779,0.737,36.493s-2.765,13.454-2.58,17.878c0.184,4.423,4.976,38.336,4.976,38.336s-1.474,2.949-1.29,3.686
			c0.184,0.737,0.553,1.843,0.737,2.58c0.184,0.737,6.082-4.423,10.506-3.318c4.423,1.106,8.109,4.239,8.109,4.239
			s0.922-5.714,0.737-8.847c-0.184-3.133-0.737-4.423-1.29-5.345c-0.553-0.921,3.502-48.657,3.686-49.21
			c0.184-0.553,0.922-33.175,0.922-33.175L87.1,319.598z"/>
		<path style="fill:#263238;stroke:#263238;stroke-linecap:round;stroke-linejoin:round;stroke-miterlimit:10;" d="M133.176,415.991
			l11.058,10.321c0,0,6.819,2.949,7.004,4.608c0.184,1.659-0.553,3.133-0.553,3.133h-36.861c0,0-1.474-3.318-0.553-8.109
			c0.922-4.792,1.659-7.557,1.659-7.557S128.384,415.991,133.176,415.991z"/>
		<path style="fill:#FFFFFF;stroke:#263238;stroke-linecap:round;stroke-linejoin:round;stroke-miterlimit:10;" d="M116.589,323.653
			c0,0-0.184,17.325-0.369,23.038c-0.184,5.714-3.502,18.246-2.765,26.725c0.737,8.478,1.29,36.493,1.29,36.493
			s-0.184,3.87-0.369,4.976c-0.184,1.106,0,4.423,0.184,5.345c0.184,0.921,9.215-1.475,12.717-2.212
			c3.502-0.737,7.741-0.369,7.741-0.369s0-2.58,0.184-5.161c0.184-2.58-0.553-4.608-0.922-7.741
			c-0.369-3.133,1.659-34.65,3.133-39.995c1.474-5.345,3.87-28.752,3.87-28.752l0.737-14.007L116.589,323.653z"/>
		<path style="fill:#263238;stroke:#263238;stroke-linecap:round;stroke-linejoin:round;stroke-miterlimit:10;" d="M87.36,261.386
			l-6.136,60.644c0,0,5.708,2.854,28.396,5.422c22.688,2.568,40.524-4.566,40.524-4.566l-3.567-61.357
			c0,0-18.978,1.284-34.389,0.999C96.778,262.242,87.36,261.386,87.36,261.386z"/>
		<g>
			<path style="fill:#FFFFFF;stroke:#263238;stroke-linecap:round;stroke-linejoin:round;stroke-miterlimit:10;" d="
				M106.623,184.475c0,0,2.426,2.14,6.279,3.853c3.853,1.712,5.85,2.711,5.85,2.711l-0.428,4.138c0,0-0.285,0.714,2.569,0.714
				c2.854,0,3.71-0.285,3.71-0.285l0.285-4.423l6.992-4.566l-0.285,6.136c0,0,18.835,4.994,18.978,7.705
				c0.143,2.711,10.014,40.903,10.014,40.903l2.926,14.631l-7.681,7.682l-7.681,8.047l-0.574-10.762c0,0-0.143,1.855-0.428,2.426
				s-1.712,0.999-1.712,0.999s-36.244,1.855-45.233,0.714c-8.99-1.141-12.414-1.998-12.985-2.426
				c-0.571-0.428-8.991,3.599-8.991,3.599s-8.836-8.419-8.836-10.845c0-2.426,7.554-37.845,7.982-39.272
				c0.428-1.427,2.283-14.555,4.138-15.696c1.855-1.142,24.543-9.703,24.543-9.703L106.623,184.475z"/>
			<g>
				<path style="fill:none;stroke:#263238;stroke-linecap:round;stroke-linejoin:round;stroke-miterlimit:10;" d="M147.644,252.641
					c0,0,1.683-1.515,7.238-1.178"/>
				<path style="fill:none;stroke:#263238;stroke-linecap:round;stroke-linejoin:round;stroke-miterlimit:10;" d="M151.684,249.443
					c0,0,2.357-1.515,6.228,0"/>
			</g>
			<polyline style="fill:#FFFFFF;stroke:#263238;stroke-linecap:round;stroke-linejoin:round;stroke-miterlimit:10;" points="
				119.608,199.458 112.046,200.6 111.475,261.386 			"/>
			<path style="fill:#FFFFFF;stroke:#263238;stroke-linecap:round;stroke-linejoin:round;stroke-miterlimit:10;" d="M88.835,221.047
				c0.149-2.407,0.237-3.895,0.237-3.895"/>
			<path style="fill:#FFFFFF;stroke:#263238;stroke-linecap:round;stroke-linejoin:round;stroke-miterlimit:10;" d="M87.217,262.67
				c0,0-2.14-2.568-1.284-4.852c0.607-1.62,1.933-21.41,2.652-32.773"/>
			
				<line style="fill:#FFFFFF;stroke:#263238;stroke-linecap:round;stroke-linejoin:round;stroke-miterlimit:10;" x1="146.783" y1="248.358" x2="147.576" y2="260.958"/>
			
				<line style="fill:#FFFFFF;stroke:#263238;stroke-linecap:round;stroke-linejoin:round;stroke-miterlimit:10;" x1="144.865" y1="217.865" x2="146.553" y2="244.706"/>
			<g>
				<path style="fill:#FFFFFF;stroke:#263238;stroke-linecap:round;stroke-linejoin:round;stroke-miterlimit:10;" d="
					M118.465,205.664c0,0.748-0.606,1.355-1.355,1.355c-0.748,0-1.355-0.606-1.355-1.355s0.606-1.355,1.355-1.355
					C117.858,204.31,118.465,204.916,118.465,205.664z"/>
				<path style="fill:#FFFFFF;stroke:#263238;stroke-linecap:round;stroke-linejoin:round;stroke-miterlimit:10;" d="
					M130.167,205.664c0,0.748-0.607,1.355-1.355,1.355c-0.748,0-1.355-0.606-1.355-1.355s0.607-1.355,1.355-1.355
					C129.561,204.31,130.167,204.916,130.167,205.664z"/>
				<path style="fill:#FFFFFF;stroke:#263238;stroke-linecap:round;stroke-linejoin:round;stroke-miterlimit:10;" d="
					M118.465,220.148c0,0.748-0.606,1.355-1.355,1.355c-0.748,0-1.355-0.606-1.355-1.355s0.606-1.355,1.355-1.355
					C117.858,218.794,118.465,219.4,118.465,220.148z"/>
				<path style="fill:#FFFFFF;stroke:#263238;stroke-linecap:round;stroke-linejoin:round;stroke-miterlimit:10;" d="
					M130.167,220.148c0,0.748-0.607,1.355-1.355,1.355c-0.748,0-1.355-0.606-1.355-1.355s0.607-1.355,1.355-1.355
					C129.561,218.794,130.167,219.4,130.167,220.148z"/>
				<path style="fill:#FFFFFF;stroke:#263238;stroke-linecap:round;stroke-linejoin:round;stroke-miterlimit:10;" d="
					M118.465,234.633c0,0.748-0.606,1.355-1.355,1.355c-0.748,0-1.355-0.607-1.355-1.355c0-0.748,0.606-1.355,1.355-1.355
					C117.858,233.278,118.465,233.884,118.465,234.633z"/>
				<path style="fill:#FFFFFF;stroke:#263238;stroke-linecap:round;stroke-linejoin:round;stroke-miterlimit:10;" d="
					M130.167,234.633c0,0.748-0.607,1.355-1.355,1.355c-0.748,0-1.355-0.607-1.355-1.355c0-0.748,0.607-1.355,1.355-1.355
					C129.561,233.278,130.167,233.884,130.167,234.633z"/>
				<path style="fill:#FFFFFF;stroke:#263238;stroke-linecap:round;stroke-linejoin:round;stroke-miterlimit:10;" d="
					M118.465,249.117c0,0.748-0.606,1.355-1.355,1.355c-0.748,0-1.355-0.607-1.355-1.355c0-0.748,0.606-1.355,1.355-1.355
					C117.858,247.762,118.465,248.368,118.465,249.117z"/>
				<path style="fill:#FFFFFF;stroke:#263238;stroke-linecap:round;stroke-linejoin:round;stroke-miterlimit:10;" d="
					M130.167,249.117c0,0.748-0.607,1.355-1.355,1.355c-0.748,0-1.355-0.607-1.355-1.355c0-0.748,0.607-1.355,1.355-1.355
					C129.561,247.762,130.167,248.368,130.167,249.117z"/>
			</g>
		</g>
		<polygon style="fill:#FFFFFF;stroke:#263238;stroke-linecap:round;stroke-linejoin:round;stroke-miterlimit:10;" points="
			146.111,255.528 151.516,271.832 158.081,266.108 147.644,252.641 		"/>
		<path style="fill:#FFFFFF;stroke:#263238;stroke-linecap:round;stroke-linejoin:round;stroke-miterlimit:10;" d="M88.267,243.174
			l-6.427-2.209c0,0-10.443,2.611-11.447,3.414c-1.004,0.803-3.615,9.037-3.012,11.849c0.603,2.811,8.234,10.845,9.037,11.046
			c0.803,0.201,7.029-1.205,8.636-2.008c1.607-0.803,4.217-5.824,4.217-5.824L88.267,243.174z"/>
		<path style="fill:#FFFFFF;stroke:#263238;stroke-linecap:round;stroke-linejoin:round;stroke-miterlimit:10;" d="M110.189,243.552
			c0,0,3.382-4.796,4.387-5.8c1.004-1.004,6.627-1.807,8.033-3.012c1.406-1.205,3.012-0.803,2.41,0.803
			c-0.603,1.607-0.603,3.213-2.008,3.615c-1.406,0.402-3.414,1.808-3.414,1.808l7.23,1.205c0,0,8.234-0.402,8.435,0.402
			s-0.603,1.406-1.607,1.807c-1.004,0.402-3.487,2.028-4.842,3.383c-1.355,1.355-3.794,3.847-6.405,4.048
			c-2.611,0.201-7.23,0.402-8.435,0.201c-1.205-0.201-3.615-0.803-3.615-0.803s-22.493,10.443-25.706,10.644
			c-3.213,0.201-8.435-5.021-9.037-9.037c-0.603-4.017,4.619-8.435,7.029-9.238C85.054,242.773,110.189,243.552,110.189,243.552z"/>
	</g>
</g>
<g id="Table">
	<g>
		<g>
			<g>
				<g>
					<g>
						<path style="fill:#CCCCCC;stroke:#263238;stroke-linecap:round;stroke-linejoin:round;stroke-miterlimit:10;" d="
							M223.36,263.804h-52.761c-1.748,0-3.164-1.417-3.164-3.164v-13.871h55.925V263.804z"/>
						<path style="fill:#CCCCCC;stroke:#263238;stroke-linecap:round;stroke-linejoin:round;stroke-miterlimit:10;" d="
							M241.864,263.804h-25.239v-17.035h28.404v13.871C245.028,262.387,243.611,263.804,241.864,263.804z"/>
						<path style="fill:#CCCCCC;stroke:#263238;stroke-linecap:round;stroke-linejoin:round;stroke-miterlimit:10;" d="
							M223.532,248.321h-56.865c-0.813,0-1.471-0.659-1.471-1.471l0,0c0-0.813,0.659-1.471,1.471-1.471h56.865
							c0.813,0,1.471,0.659,1.471,1.471l0,0C225.003,247.662,224.344,248.321,223.532,248.321z"/>
						<path style="fill:#CCCCCC;stroke:#263238;stroke-linecap:round;stroke-linejoin:round;stroke-miterlimit:10;" d="
							M245.185,248.321h-28.082c-0.813,0-1.471-0.659-1.471-1.471l0,0c0-0.813,0.659-1.471,1.471-1.471h28.082
							c0.813,0,1.471,0.659,1.471,1.471l0,0C246.657,247.662,245.998,248.321,245.185,248.321z"/>
					</g>
					<path style="fill:#CCCCCC;stroke:#263238;stroke-linecap:round;stroke-linejoin:round;stroke-miterlimit:10;" d="
						M208.527,254.557h-32.351c-0.824,0-1.491-0.668-1.491-1.491l0,0c0-0.824,0.668-1.491,1.491-1.491h32.351
						c0.824,0,1.491,0.668,1.491,1.491l0,0C210.018,253.889,209.351,254.557,208.527,254.557z"/>
				</g>
				
					<rect x="170.282" y="263.804" style="fill:#FFFFFF;stroke:#263238;stroke-linecap:round;stroke-linejoin:round;stroke-miterlimit:10;" width="2.22" height="21.015"/>
				
					<rect x="201.347" y="263.804" style="fill:#FFFFFF;stroke:#263238;stroke-linecap:round;stroke-linejoin:round;stroke-miterlimit:10;" width="2.22" height="21.015"/>
				
					<rect x="218.86" y="263.804" style="fill:#FFFFFF;stroke:#263238;stroke-linecap:round;stroke-linejoin:round;stroke-miterlimit:10;" width="2.22" height="21.015"/>
				
					<rect x="240.484" y="263.804" style="fill:#FFFFFF;stroke:#263238;stroke-linecap:round;stroke-linejoin:round;stroke-miterlimit:10;" width="2.22" height="21.015"/>
				
					<rect x="169.863" y="263.804" style="fill:#FFFFFF;stroke:#263238;stroke-linecap:round;stroke-linejoin:round;stroke-miterlimit:10;" width="73.508" height="2.006"/>
				<path style="fill:#FFFFFF;stroke:#263238;stroke-linecap:round;stroke-linejoin:round;stroke-miterlimit:10;" d="
					M222.755,245.378c0,0,21.015-15.381,23.604-16.142c2.589-0.761,3.503,0.761,2.589,2.437
					c-0.914,1.675-22.538,13.553-22.538,13.553L222.755,245.378z"/>
			</g>
			<g>
				<path style="fill:none;stroke:#263238;stroke-linecap:round;stroke-linejoin:round;stroke-miterlimit:10;" d="M234.432,221.476
					c-0.428,0.768-0.73,1.694-0.73,2.998c0,3.945,2.756,4.438,3.445,7.52"/>
				<path style="fill:none;stroke:#263238;stroke-linecap:round;stroke-linejoin:round;stroke-miterlimit:10;" d="M237.302,215.463
					c0,1.997-0.707,3.109-1.495,4.121"/>
				<path style="fill:none;stroke:#263238;stroke-linecap:round;stroke-linejoin:round;stroke-miterlimit:10;" d="M218.445,227.151
					c1.012,2.113,3.037,2.959,3.037,6.34c0,4.509-3.599,4.509-3.599,9.017"/>
				<path style="fill:none;stroke:#263238;stroke-linecap:round;stroke-linejoin:round;stroke-miterlimit:10;" d="M221.482,215.463
					c0,4.061-2.924,4.462-3.501,7.801"/>
				<path style="fill:none;stroke:#263238;stroke-linecap:round;stroke-linejoin:round;stroke-miterlimit:10;" d="M205.101,230.814
					c0.338,0.704,0.562,1.55,0.562,2.677c0,4.509-3.599,4.509-3.599,9.017"/>
				<path style="fill:none;stroke:#263238;stroke-linecap:round;stroke-linejoin:round;stroke-miterlimit:10;" d="M205.663,215.463
					c0,4.506-3.599,4.506-3.599,9.011c0,1.691,0.506,2.747,1.139,3.646"/>
				<path style="fill:none;stroke:#263238;stroke-linecap:round;stroke-linejoin:round;stroke-miterlimit:10;" d="M189.844,215.463
					c0,4.506-3.599,4.506-3.599,9.011c0,4.509,3.599,4.509,3.599,9.017s-3.599,4.509-3.599,9.017"/>
				<path style="fill:none;stroke:#263238;stroke-linecap:round;stroke-linejoin:round;stroke-miterlimit:10;" d="M173.111,234.245
					c0.523,0.556,0.913,1.223,0.913,2.218c0,3.023-3.599,3.023-3.599,6.046"/>
				<path style="fill:none;stroke:#263238;stroke-linecap:round;stroke-linejoin:round;stroke-miterlimit:10;" d="M174.024,224.376
					c0,3.021-3.599,3.021-3.599,6.042c0,0.507,0.101,0.929,0.27,1.294"/>
			</g>
		</g>
		<g>
			<g>
				<g>
					<g>
						<path style="fill:#CCCCCC;stroke:#263238;stroke-linecap:round;stroke-linejoin:round;stroke-miterlimit:10;" d="
							M311.745,263.804h-52.761c-1.748,0-3.164-1.417-3.164-3.164v-13.871h55.925V263.804z"/>
						<path style="fill:#CCCCCC;stroke:#263238;stroke-linecap:round;stroke-linejoin:round;stroke-miterlimit:10;" d="
							M330.249,263.804H305.01v-17.035h28.404v13.871C333.414,262.387,331.997,263.804,330.249,263.804z"/>
						<path style="fill:#CCCCCC;stroke:#263238;stroke-linecap:round;stroke-linejoin:round;stroke-miterlimit:10;" d="
							M311.918,248.321h-56.866c-0.813,0-1.471-0.659-1.471-1.471l0,0c0-0.813,0.659-1.471,1.471-1.471h56.866
							c0.813,0,1.471,0.659,1.471,1.471l0,0C313.389,247.662,312.73,248.321,311.918,248.321z"/>
						<path style="fill:#CCCCCC;stroke:#263238;stroke-linecap:round;stroke-linejoin:round;stroke-miterlimit:10;" d="
							M333.571,248.321H305.49c-0.813,0-1.471-0.659-1.471-1.471l0,0c0-0.813,0.659-1.471,1.471-1.471h28.082
							c0.813,0,1.471,0.659,1.471,1.471l0,0C335.043,247.662,334.384,248.321,333.571,248.321z"/>
					</g>
					<path style="fill:#CCCCCC;stroke:#263238;stroke-linecap:round;stroke-linejoin:round;stroke-miterlimit:10;" d="
						M296.913,254.557h-32.351c-0.824,0-1.491-0.668-1.491-1.491l0,0c0-0.824,0.668-1.491,1.491-1.491h32.351
						c0.824,0,1.491,0.668,1.491,1.491l0,0C298.404,253.889,297.736,254.557,296.913,254.557z"/>
				</g>
				
					<rect x="258.667" y="263.804" style="fill:#FFFFFF;stroke:#263238;stroke-linecap:round;stroke-linejoin:round;stroke-miterlimit:10;" width="2.22" height="21.015"/>
				
					<rect x="289.733" y="263.804" style="fill:#FFFFFF;stroke:#263238;stroke-linecap:round;stroke-linejoin:round;stroke-miterlimit:10;" width="2.22" height="21.015"/>
				
					<rect x="307.246" y="263.804" style="fill:#FFFFFF;stroke:#263238;stroke-linecap:round;stroke-linejoin:round;stroke-miterlimit:10;" width="2.22" height="21.015"/>
				
					<rect x="328.87" y="263.804" style="fill:#FFFFFF;stroke:#263238;stroke-linecap:round;stroke-linejoin:round;stroke-miterlimit:10;" width="2.22" height="21.015"/>
				
					<rect x="258.249" y="263.804" style="fill:#FFFFFF;stroke:#263238;stroke-linecap:round;stroke-linejoin:round;stroke-miterlimit:10;" width="73.508" height="2.006"/>
				<path style="fill:#FFFFFF;stroke:#263238;stroke-linecap:round;stroke-linejoin:round;stroke-miterlimit:10;" d="
					M311.141,245.378c0,0,21.015-15.381,23.604-16.142c2.589-0.761,3.503,0.761,2.589,2.437
					c-0.914,1.675-22.538,13.553-22.538,13.553L311.141,245.378z"/>
			</g>
			<g>
				<path style="fill:none;stroke:#263238;stroke-linecap:round;stroke-linejoin:round;stroke-miterlimit:10;" d="M261.68,236.495
					c0.428-0.768,0.73-1.694,0.73-2.998c0-4.509-3.599-4.509-3.599-9.017s3.599-4.509,3.599-9.017"/>
				<path style="fill:none;stroke:#263238;stroke-linecap:round;stroke-linejoin:round;stroke-miterlimit:10;" d="M258.811,242.509
					c0-1.998,0.707-3.109,1.495-4.121"/>
				<path style="fill:none;stroke:#263238;stroke-linecap:round;stroke-linejoin:round;stroke-miterlimit:10;" d="M274.63,242.509
					c0-4.506,3.599-4.506,3.599-9.011c0-4.509-3.599-4.509-3.599-9.017s3.599-4.509,3.599-9.017"/>
				<path style="fill:none;stroke:#263238;stroke-linecap:round;stroke-linejoin:round;stroke-miterlimit:10;" d="M291.012,227.157
					c-0.337-0.704-0.562-1.55-0.562-2.677c0-4.509,3.599-4.509,3.599-9.017"/>
				<path style="fill:none;stroke:#263238;stroke-linecap:round;stroke-linejoin:round;stroke-miterlimit:10;" d="M290.45,242.509
					c0-4.506,3.599-4.506,3.599-9.011c0-1.691-0.506-2.748-1.139-3.646"/>
				<path style="fill:none;stroke:#263238;stroke-linecap:round;stroke-linejoin:round;stroke-miterlimit:10;" d="M306.269,242.509
					c0-4.506,3.599-4.506,3.599-9.011c0-4.509-3.599-4.509-3.599-9.017s3.599-4.509,3.599-9.017"/>
				<path style="fill:none;stroke:#263238;stroke-linecap:round;stroke-linejoin:round;stroke-miterlimit:10;" d="M323.001,223.727
					c-0.523-0.556-0.913-1.223-0.913-2.218c0-3.023,3.599-3.023,3.599-6.046"/>
				<path style="fill:none;stroke:#263238;stroke-linecap:round;stroke-linejoin:round;stroke-miterlimit:10;" d="M322.088,233.596
					c0-3.021,3.599-3.021,3.599-6.042c0-0.507-0.101-0.929-0.27-1.294"/>
			</g>
		</g>
		<g>
			<g>
				<path style="fill:#FFFFFF;stroke:#263238;stroke-linecap:round;stroke-linejoin:round;stroke-miterlimit:10;" d="M321,280.485
					h-11.157c-1.174,0-2.125-0.952-2.125-2.125l0,0c0-1.174,0.952-2.125,2.125-2.125H321c1.174,0,2.125,0.951,2.125,2.125l0,0
					C323.125,279.534,322.173,280.485,321,280.485z"/>
				<path style="fill:#FFFFFF;stroke:#263238;stroke-linecap:round;stroke-linejoin:round;stroke-miterlimit:10;" d="
					M336.235,280.485h-11.157c-1.174,0-2.125-0.952-2.125-2.125l0,0c0-1.174,0.952-2.125,2.125-2.125h11.157
					c1.174,0,2.125,0.951,2.125,2.125l0,0C338.36,279.534,337.409,280.485,336.235,280.485z"/>
				<path style="fill:#FFFFFF;stroke:#263238;stroke-linecap:round;stroke-linejoin:round;stroke-miterlimit:10;" d="
					M328.382,276.244h-11.157c-1.174,0-2.125-0.951-2.125-2.125l0,0c0-1.174,0.952-2.125,2.125-2.125h11.157
					c1.174,0,2.125,0.952,2.125,2.125l0,0C330.507,275.293,329.556,276.244,328.382,276.244z"/>
				<path style="fill:#FFFFFF;stroke:#263238;stroke-linecap:round;stroke-linejoin:round;stroke-miterlimit:10;" d="
					M352.727,280.485H341.57c-1.174,0-2.125-0.952-2.125-2.125l0,0c0-1.174,0.952-2.125,2.125-2.125h11.157
					c1.174,0,2.125,0.951,2.125,2.125l0,0C354.852,279.534,353.901,280.485,352.727,280.485z"/>
				<path style="fill:#FFFFFF;stroke:#263238;stroke-linecap:round;stroke-linejoin:round;stroke-miterlimit:10;" d="
					M367.962,280.485h-11.157c-1.174,0-2.125-0.952-2.125-2.125l0,0c0-1.174,0.951-2.125,2.125-2.125h11.157
					c1.174,0,2.125,0.951,2.125,2.125l0,0C370.087,279.534,369.136,280.485,367.962,280.485z"/>
				<path style="fill:#FFFFFF;stroke:#263238;stroke-linecap:round;stroke-linejoin:round;stroke-miterlimit:10;" d="
					M360.109,276.244h-11.157c-1.174,0-2.125-0.951-2.125-2.125l0,0c0-1.174,0.951-2.125,2.125-2.125h11.157
					c1.174,0,2.125,0.952,2.125,2.125l0,0C362.234,275.293,361.283,276.244,360.109,276.244z"/>
				<path style="fill:#FFFFFF;stroke:#263238;stroke-linecap:round;stroke-linejoin:round;stroke-miterlimit:10;" d="
					M344.088,276.244h-11.157c-1.174,0-2.125-0.951-2.125-2.125l0,0c0-1.174,0.952-2.125,2.125-2.125h11.157
					c1.174,0,2.125,0.952,2.125,2.125l0,0C346.214,275.293,345.262,276.244,344.088,276.244z"/>
				<path style="fill:#FFFFFF;stroke:#263238;stroke-linecap:round;stroke-linejoin:round;stroke-miterlimit:10;" d="
					M336.235,272.161h-11.157c-1.174,0-2.125-0.952-2.125-2.125l0,0c0-1.174,0.952-2.125,2.125-2.125h11.157
					c1.174,0,2.125,0.951,2.125,2.125l0,0C338.36,271.209,337.409,272.161,336.235,272.161z"/>
				<path style="fill:#FFFFFF;stroke:#263238;stroke-linecap:round;stroke-linejoin:round;stroke-miterlimit:10;" d="
					M351.942,272.161h-11.157c-1.174,0-2.125-0.952-2.125-2.125l0,0c0-1.174,0.952-2.125,2.125-2.125h11.157
					c1.174,0,2.125,0.951,2.125,2.125l0,0C354.067,271.209,353.115,272.161,351.942,272.161z"/>
			</g>
			<g>
				
					<rect x="307.362" y="279.659" style="fill:#FFFFFF;stroke:#263238;stroke-linecap:round;stroke-linejoin:round;stroke-miterlimit:10;" width="63.864" height="4.923"/>
				<path style="fill:#FFFFFF;stroke:#263238;stroke-linecap:round;stroke-linejoin:round;stroke-miterlimit:10;" d="
					M371.631,281.211h-65.356c-0.813,0-1.471-0.659-1.471-1.471l0,0c0-0.813,0.659-1.471,1.471-1.471h65.356
					c0.813,0,1.471,0.659,1.471,1.471l0,0C373.103,280.552,372.444,281.211,371.631,281.211z"/>
			</g>
		</g>
		<g>
			<g>
				<g>
					
						<circle style="fill:#92E3A9;stroke:#263238;stroke-linecap:round;stroke-linejoin:round;stroke-miterlimit:10;" cx="362.813" cy="237.603" r="2.371"/>
					<path style="fill:#92E3A9;stroke:#263238;stroke-linecap:round;stroke-linejoin:round;stroke-miterlimit:10;" d="
						M369.927,235.878c0,1.31-1.062,2.371-2.371,2.371c-1.31,0-2.371-1.062-2.371-2.371c0-1.31,1.062-2.371,2.371-2.371
						C368.866,233.507,369.927,234.568,369.927,235.878z"/>
					
						<circle style="fill:#92E3A9;stroke:#263238;stroke-linecap:round;stroke-linejoin:round;stroke-miterlimit:10;" cx="371.221" cy="236.74" r="2.371"/>
					
						<circle style="fill:#92E3A9;stroke:#263238;stroke-linecap:round;stroke-linejoin:round;stroke-miterlimit:10;" cx="375.748" cy="236.094" r="2.371"/>
					
						<circle style="fill:#92E3A9;stroke:#263238;stroke-linecap:round;stroke-linejoin:round;stroke-miterlimit:10;" cx="386.527" cy="234.585" r="2.371"/>
					
						<circle style="fill:#92E3A9;stroke:#263238;stroke-linecap:round;stroke-linejoin:round;stroke-miterlimit:10;" cx="398.815" cy="237.172" r="2.371"/>
					
						<circle style="fill:#92E3A9;stroke:#263238;stroke-linecap:round;stroke-linejoin:round;stroke-miterlimit:10;" cx="382.215" cy="237.172" r="2.371"/>
					<path style="fill:#92E3A9;stroke:#263238;stroke-linecap:round;stroke-linejoin:round;stroke-miterlimit:10;" d="
						M392.779,236.74c0,1.31-1.062,2.371-2.371,2.371c-1.31,0-2.371-1.062-2.371-2.371c0-1.31,1.062-2.371,2.371-2.371
						C391.717,234.369,392.779,235.431,392.779,236.74z"/>
					<path style="fill:#92E3A9;stroke:#263238;stroke-linecap:round;stroke-linejoin:round;stroke-miterlimit:10;" d="
						M405.929,237.172c0,1.31-1.062,2.371-2.371,2.371c-1.31,0-2.371-1.062-2.371-2.371c0-1.31,1.062-2.371,2.371-2.371
						C404.868,234.8,405.929,235.862,405.929,237.172z"/>
					
						<circle style="fill:#92E3A9;stroke:#263238;stroke-linecap:round;stroke-linejoin:round;stroke-miterlimit:10;" cx="396.228" cy="236.74" r="2.371"/>
					<path style="fill:#92E3A9;stroke:#263238;stroke-linecap:round;stroke-linejoin:round;stroke-miterlimit:10;" d="
						M403.558,239.543c0,1.31-1.062,2.371-2.371,2.371c-1.31,0-2.371-1.062-2.371-2.371c0-1.31,1.062-2.371,2.371-2.371
						C402.496,237.172,403.558,238.233,403.558,239.543z"/>
					<path style="fill:#92E3A9;stroke:#263238;stroke-linecap:round;stroke-linejoin:round;stroke-miterlimit:10;" d="
						M369.927,238.249c0,1.31-1.062,2.371-2.371,2.371c-1.31,0-2.371-1.062-2.371-2.371c0-1.31,1.062-2.371,2.371-2.371
						C368.866,235.878,369.927,236.94,369.927,238.249z"/>
					<path style="fill:#92E3A9;stroke:#263238;stroke-linecap:round;stroke-linejoin:round;stroke-miterlimit:10;" d="
						M375.101,239.112c0,1.31-1.062,2.371-2.371,2.371c-1.31,0-2.371-1.062-2.371-2.371c0-1.31,1.062-2.371,2.371-2.371
						C374.04,236.74,375.101,237.802,375.101,239.112z"/>
					
						<circle style="fill:#92E3A9;stroke:#263238;stroke-linecap:round;stroke-linejoin:round;stroke-miterlimit:10;" cx="378.12" cy="238.465" r="2.371"/>
					<path style="fill:#92E3A9;stroke:#263238;stroke-linecap:round;stroke-linejoin:round;stroke-miterlimit:10;" d="
						M387.174,238.034c0,1.31-1.062,2.371-2.371,2.371c-1.31,0-2.371-1.062-2.371-2.371c0-1.31,1.062-2.371,2.371-2.371
						C386.112,235.663,387.174,236.724,387.174,238.034z"/>
					<path style="fill:#92E3A9;stroke:#263238;stroke-linecap:round;stroke-linejoin:round;stroke-miterlimit:10;" d="
						M390.408,238.249c0,1.31-1.062,2.371-2.371,2.371c-1.31,0-2.371-1.062-2.371-2.371c0-1.31,1.062-2.371,2.371-2.371
						C389.346,235.878,390.408,236.94,390.408,238.249z"/>
					<path style="fill:#92E3A9;stroke:#263238;stroke-linecap:round;stroke-linejoin:round;stroke-miterlimit:10;" d="
						M396.228,239.112c0,1.31-1.062,2.371-2.371,2.371c-1.31,0-2.371-1.062-2.371-2.371c0-1.31,1.062-2.371,2.371-2.371
						C395.167,236.74,396.228,237.802,396.228,239.112z"/>
				</g>
				<path style="fill:#FFFFFF;stroke:#263238;stroke-linecap:round;stroke-linejoin:round;stroke-miterlimit:10;" d="
					M393.857,239.112c0,0,14.465-17.379,16.021-18.313c1.555-0.933,4.666,0,3.422,2.489c-1.244,2.489-14.484,16.255-14.484,16.255
					L393.857,239.112z"/>
				<path style="fill:#FFFFFF;stroke:#263238;stroke-linecap:round;stroke-linejoin:round;stroke-miterlimit:10;" d="
					M357.317,238.979h50.9c1.165,0,1.965,1.173,1.539,2.258l-6.666,16.973c-0.249,0.633-0.859,1.049-1.539,1.049h-37.569
					c-0.68,0-1.29-0.416-1.539-1.049l-6.666-16.973C355.352,240.152,356.151,238.979,357.317,238.979z"/>
			</g>
			<g>
				<rect x="361.735" y="259.376" style="fill:#263238;" width="41.607" height="3.665"/>
				<rect x="361.735" y="280.934" style="fill:#263238;" width="41.607" height="3.665"/>
				<rect x="362.586" y="261.963" style="fill:#263238;" width="2.826" height="22.636"/>
				<rect x="374.228" y="261.963" style="fill:#263238;" width="2.826" height="22.636"/>
				<rect x="392.767" y="261.963" style="fill:#263238;" width="2.826" height="22.636"/>
				<rect x="399.677" y="261.963" style="fill:#263238;" width="2.803" height="22.636"/>
			</g>
		</g>
		<g>
			<g>
				<path style="fill:#92E3A9;stroke:#263238;stroke-linecap:round;stroke-linejoin:round;stroke-miterlimit:10;" d="
					M395.647,271.705c0,0-2.499-2.294-1.363-2.983c1.136-0.688,2.272,2.294,2.954,0.459c0.681-1.835,1.363-3.212,2.272-2.294
					c0.909,0.918,0,1.147,0.909,0.918c0.909-0.23,1.363-2.294,2.272-1.147c0.909,1.147-0.227,0.918,0.909,1.147
					c1.136,0.229-0.909,0.688,1.136,0.229c2.045-0.459,2.045-0.459,2.045-0.459s-2.499-0.229,0,0
					c2.499,0.23,3.181,0.459,2.953,1.377c-0.227,0.918-0.227,0.918-0.227,0.918s2.499,1.147,2.953,0.459
					c0.454-0.688-0.681-2.065,1.59-2.065c2.272,0,0.909-0.459,2.272,0c1.363,0.459,0.682-0.918,2.045-1.377
					c1.363-0.459-0.227-2.065,1.363-0.459c1.59,1.606,0.227,2.524,1.59,1.606c1.363-0.918,2.045-1.606,2.726,0
					c0.682,1.606,0.227,2.753,1.818,1.606c1.59-1.147-0.454-2.065,1.59-1.147c2.045,0.918,2.045,0.918,2.045,0.918
					s0.909,1.147,1.818,1.147c0.909,0,0.909,0,2.499-0.688c1.59-0.688,1.818-2.753,3.862-1.606c2.045,1.147-0.454,1.836,2.045,1.147
					c2.499-0.688,2.499-0.688,2.499-0.688l2.045,0.918l2.953-1.377c0,0,3.118,3.09-0.031,3.725S395.647,271.705,395.647,271.705z"/>
				
					<rect x="393.096" y="271.988" style="fill:#CCCCCC;stroke:#263238;stroke-linecap:round;stroke-linejoin:round;stroke-miterlimit:10;" width="55.925" height="12.594"/>
				
					<rect x="448.93" y="271.988" style="fill:#CCCCCC;stroke:#263238;stroke-linecap:round;stroke-linejoin:round;stroke-miterlimit:10;" width="25.494" height="12.594"/>
				<path style="fill:#CCCCCC;stroke:#263238;stroke-linecap:round;stroke-linejoin:round;stroke-miterlimit:10;" d="
					M449.194,273.54h-56.865c-0.813,0-1.471-0.659-1.471-1.471l0,0c0-0.813,0.659-1.471,1.471-1.471h56.865
					c0.813,0,1.471,0.659,1.471,1.471l0,0C450.665,272.881,450.007,273.54,449.194,273.54z"/>
				<path style="fill:#CCCCCC;stroke:#263238;stroke-linecap:round;stroke-linejoin:round;stroke-miterlimit:10;" d="
					M474.976,273.54h-30.597c-0.813,0-1.471-0.659-1.471-1.471l0,0c0-0.813,0.659-1.471,1.471-1.471h30.597
					c0.813,0,1.471,0.659,1.471,1.471l0,0C476.447,272.881,475.788,273.54,474.976,273.54z"/>
			</g>
			<path style="fill:#CCCCCC;stroke:#263238;stroke-linecap:round;stroke-linejoin:round;stroke-miterlimit:10;" d="
				M437.235,279.776h-32.351c-0.824,0-1.491-0.668-1.491-1.491l0,0c0-0.824,0.668-1.491,1.491-1.491h32.351
				c0.824,0,1.491,0.668,1.491,1.491l0,0C438.726,279.108,438.058,279.776,437.235,279.776z"/>
		</g>
		<g>
			<path style="fill:#92E3A9;stroke:#263238;stroke-linecap:round;stroke-linejoin:round;stroke-miterlimit:10;" d="
				M494.298,278.948c0,2.713-2.199,4.912-4.912,4.912c-2.713,0-4.912-2.199-4.912-4.912c0-2.713,2.199-4.912,4.912-4.912
				C492.099,274.036,494.298,276.236,494.298,278.948z"/>
			
				<circle style="fill:#92E3A9;stroke:#263238;stroke-linecap:round;stroke-linejoin:round;stroke-miterlimit:10;" cx="500.087" cy="278.948" r="4.912"/>
			<path style="fill:#92E3A9;stroke:#263238;stroke-linecap:round;stroke-linejoin:round;stroke-miterlimit:10;" d="M515.7,278.948
				c0,2.713-2.199,4.912-4.912,4.912c-2.713,0-4.912-2.199-4.912-4.912c0-2.713,2.199-4.912,4.912-4.912
				C513.5,274.036,515.7,276.236,515.7,278.948z"/>
			<path style="fill:#92E3A9;stroke:#263238;stroke-linecap:round;stroke-linejoin:round;stroke-miterlimit:10;" d="M526.4,278.948
				c0,2.713-2.199,4.912-4.912,4.912c-2.713,0-4.912-2.199-4.912-4.912c0-2.713,2.199-4.912,4.912-4.912
				C524.201,274.036,526.4,276.236,526.4,278.948z"/>
			<path style="fill:#92E3A9;stroke:#263238;stroke-linecap:round;stroke-linejoin:round;stroke-miterlimit:10;" d="
				M537.101,278.948c0,2.713-2.199,4.912-4.912,4.912c-2.713,0-4.912-2.199-4.912-4.912c0-2.713,2.199-4.912,4.912-4.912
				C534.902,274.036,537.101,276.236,537.101,278.948z"/>
			<g>
				
					<rect x="483.041" y="279.659" style="fill:#CCCCCC;stroke:#263238;stroke-linecap:round;stroke-linejoin:round;stroke-miterlimit:10;" width="55.925" height="4.923"/>
				<path style="fill:#CCCCCC;stroke:#263238;stroke-linecap:round;stroke-linejoin:round;stroke-miterlimit:10;" d="
					M539.138,281.211h-56.866c-0.813,0-1.471-0.659-1.471-1.471l0,0c0-0.813,0.659-1.471,1.471-1.471h56.866
					c0.813,0,1.471,0.659,1.471,1.471l0,0C540.61,280.552,539.951,281.211,539.138,281.211z"/>
			</g>
		</g>
		<g>
			<path style="fill:#FFFFFF;stroke:#263238;stroke-linecap:round;stroke-linejoin:round;stroke-miterlimit:10;" d="
				M556.393,433.164H143.528V291.598c0-3.731,3.025-6.756,6.756-6.756h399.353c3.731,0,6.756,3.025,6.756,6.756V433.164z"/>
			<g>
				<g>
					<path style="fill:#92E3A9;stroke:#263238;stroke-linecap:round;stroke-linejoin:round;stroke-miterlimit:10;" d="
						M155.174,286.104c0.141-0.708,0.941-0.977,1.421-0.471c3.957,4.177,19.315,18.229,47.136,18.601
						c26.424,0.353,43.075-12.932,47.733-17.199c0.555-0.509,1.398-0.08,1.397,0.708c-0.008,5.882-1.284,23.287-15.332,33.308
						c-17.093,12.193-52.833,14.715-73.034-4.625C152.663,305.1,154.228,290.86,155.174,286.104z"/>
					<path style="fill:none;stroke:#263238;stroke-linecap:round;stroke-linejoin:round;stroke-miterlimit:10;" d="M170.044,301.921
						c1.594,0.991,3.363,1.916,5.327,2.733"/>
					<path style="fill:none;stroke:#263238;stroke-linecap:round;stroke-linejoin:round;stroke-miterlimit:10;" d="M156.594,285.633
						c0,0,2.001,7.015,9.238,13.208"/>
					<path style="fill:none;stroke:#263238;stroke-linecap:round;stroke-linejoin:round;stroke-miterlimit:10;" d="M194.451,318.25
						c-4.251-0.316-7.187-0.846-7.814-0.982"/>
					<path style="fill:none;stroke:#263238;stroke-linecap:round;stroke-linejoin:round;stroke-miterlimit:10;" d="M252.86,287.743
						c0,0-6.786,13.968-23.49,24.059c-9.525,5.753-21.449,6.859-30.3,6.669"/>
					<path style="fill:none;stroke:#263238;stroke-linecap:round;stroke-linejoin:round;stroke-miterlimit:10;" d="M195.572,310.54
						c0,0,19.424,4.625,42.732-10.511"/>
				</g>
				<g>
					<path style="fill:#92E3A9;stroke:#263238;stroke-linecap:round;stroke-linejoin:round;stroke-miterlimit:10;" d="
						M252.681,286.104c0.141-0.708,0.941-0.977,1.421-0.471c3.957,4.177,19.315,18.229,47.136,18.601
						c26.424,0.353,43.075-12.932,47.733-17.199c0.556-0.509,1.398-0.08,1.397,0.708c-0.009,5.882-1.284,23.287-15.332,33.308
						c-17.093,12.193-52.833,14.715-73.034-4.625C250.171,305.1,251.736,290.86,252.681,286.104z"/>
					<path style="fill:none;stroke:#263238;stroke-linecap:round;stroke-linejoin:round;stroke-miterlimit:10;" d="M267.552,301.921
						c1.593,0.991,3.363,1.916,5.327,2.733"/>
					<path style="fill:none;stroke:#263238;stroke-linecap:round;stroke-linejoin:round;stroke-miterlimit:10;" d="M254.102,285.633
						c0,0,2.001,7.015,9.238,13.208"/>
					<path style="fill:none;stroke:#263238;stroke-linecap:round;stroke-linejoin:round;stroke-miterlimit:10;" d="M291.959,318.25
						c-4.251-0.316-7.187-0.846-7.814-0.982"/>
					<path style="fill:none;stroke:#263238;stroke-linecap:round;stroke-linejoin:round;stroke-miterlimit:10;" d="M350.367,287.743
						c0,0-6.786,13.968-23.49,24.059c-9.525,5.753-21.449,6.859-30.3,6.669"/>
					<path style="fill:none;stroke:#263238;stroke-linecap:round;stroke-linejoin:round;stroke-miterlimit:10;" d="M293.08,310.54
						c0,0,19.424,4.625,42.732-10.511"/>
				</g>
				<g>
					<path style="fill:#92E3A9;stroke:#263238;stroke-linecap:round;stroke-linejoin:round;stroke-miterlimit:10;" d="
						M350.189,286.104c0.141-0.708,0.942-0.977,1.421-0.471c3.957,4.177,19.315,18.229,47.136,18.601
						c26.424,0.353,43.075-12.932,47.733-17.199c0.556-0.509,1.398-0.08,1.397,0.708c-0.009,5.882-1.284,23.287-15.332,33.308
						c-17.093,12.193-52.833,14.715-73.034-4.625C347.678,305.1,349.243,290.86,350.189,286.104z"/>
					<path style="fill:none;stroke:#263238;stroke-linecap:round;stroke-linejoin:round;stroke-miterlimit:10;" d="M365.06,301.921
						c1.594,0.991,3.363,1.916,5.327,2.733"/>
					<path style="fill:none;stroke:#263238;stroke-linecap:round;stroke-linejoin:round;stroke-miterlimit:10;" d="M351.61,285.633
						c0,0,2.001,7.015,9.238,13.208"/>
					<path style="fill:none;stroke:#263238;stroke-linecap:round;stroke-linejoin:round;stroke-miterlimit:10;" d="M389.466,318.25
						c-4.251-0.316-7.187-0.846-7.814-0.982"/>
					<path style="fill:none;stroke:#263238;stroke-linecap:round;stroke-linejoin:round;stroke-miterlimit:10;" d="M447.875,287.743
						c0,0-6.786,13.968-23.49,24.059c-9.525,5.753-21.449,6.859-30.3,6.669"/>
					<path style="fill:none;stroke:#263238;stroke-linecap:round;stroke-linejoin:round;stroke-miterlimit:10;" d="M390.587,310.54
						c0,0,19.424,4.625,42.733-10.511"/>
				</g>
				<g>
					<path style="fill:#92E3A9;stroke:#263238;stroke-linecap:round;stroke-linejoin:round;stroke-miterlimit:10;" d="
						M447.697,286.104c0.141-0.708,0.941-0.977,1.421-0.471c3.957,4.177,19.315,18.229,47.136,18.601
						c26.424,0.353,43.075-12.932,47.733-17.199c0.555-0.509,1.398-0.08,1.397,0.708c-0.009,5.882-1.284,23.287-15.332,33.308
						c-17.093,12.193-52.833,14.715-73.034-4.625C445.186,305.1,446.751,290.86,447.697,286.104z"/>
					<path style="fill:none;stroke:#263238;stroke-linecap:round;stroke-linejoin:round;stroke-miterlimit:10;" d="M462.567,301.921
						c1.594,0.991,3.363,1.916,5.327,2.733"/>
					<path style="fill:none;stroke:#263238;stroke-linecap:round;stroke-linejoin:round;stroke-miterlimit:10;" d="M449.117,285.633
						c0,0,2.001,7.015,9.238,13.208"/>
					<path style="fill:none;stroke:#263238;stroke-linecap:round;stroke-linejoin:round;stroke-miterlimit:10;" d="M486.974,318.25
						c-4.251-0.316-7.187-0.846-7.814-0.982"/>
					<path style="fill:none;stroke:#263238;stroke-linecap:round;stroke-linejoin:round;stroke-miterlimit:10;" d="M545.383,287.743
						c0,0-6.786,13.968-23.49,24.059c-9.525,5.753-21.449,6.859-30.3,6.669"/>
					<path style="fill:none;stroke:#263238;stroke-linecap:round;stroke-linejoin:round;stroke-miterlimit:10;" d="M488.095,310.54
						c0,0,19.424,4.625,42.732-10.511"/>
				</g>
			</g>
			<g>
				<g>
					
						<line style="fill:#FFFFFF;stroke:#263238;stroke-linecap:round;stroke-linejoin:round;stroke-miterlimit:10;" x1="164.541" y1="433.052" x2="164.541" y2="346.584"/>
					
						<line style="fill:#FFFFFF;stroke:#263238;stroke-linecap:round;stroke-linejoin:round;stroke-miterlimit:10;" x1="181.615" y1="373.633" x2="181.615" y2="394.474"/>
					
						<line style="fill:#FFFFFF;stroke:#263238;stroke-linecap:round;stroke-linejoin:round;stroke-miterlimit:10;" x1="181.615" y1="335.055" x2="181.615" y2="365.651"/>
					
						<line style="fill:#FFFFFF;stroke:#263238;stroke-linecap:round;stroke-linejoin:round;stroke-miterlimit:10;" x1="203.431" y1="419.306" x2="203.431" y2="362.104"/>
					
						<line style="fill:#FFFFFF;stroke:#263238;stroke-linecap:round;stroke-linejoin:round;stroke-miterlimit:10;" x1="203.431" y1="432.166" x2="203.431" y2="424.184"/>
					
						<line style="fill:#FFFFFF;stroke:#263238;stroke-linecap:round;stroke-linejoin:round;stroke-miterlimit:10;" x1="257.971" y1="364.321" x2="257.971" y2="397.578"/>
					
						<line style="fill:#FFFFFF;stroke:#263238;stroke-linecap:round;stroke-linejoin:round;stroke-miterlimit:10;" x1="239" y1="409.107" x2="239" y2="417.089"/>
					
						<line style="fill:#FFFFFF;stroke:#263238;stroke-linecap:round;stroke-linejoin:round;stroke-miterlimit:10;" x1="239" y1="351.462" x2="239" y2="403.786"/>
					
						<line style="fill:#FFFFFF;stroke:#263238;stroke-linecap:round;stroke-linejoin:round;stroke-miterlimit:10;" x1="300.18" y1="342.15" x2="300.18" y2="376.294"/>
					
						<line style="fill:#FFFFFF;stroke:#263238;stroke-linecap:round;stroke-linejoin:round;stroke-miterlimit:10;" x1="291.169" y1="415.759" x2="291.169" y2="382.945"/>
					
						<line style="fill:#FFFFFF;stroke:#263238;stroke-linecap:round;stroke-linejoin:round;stroke-miterlimit:10;" x1="345.235" y1="423.297" x2="345.235" y2="373.633"/>
					
						<line style="fill:#FFFFFF;stroke:#263238;stroke-linecap:round;stroke-linejoin:round;stroke-miterlimit:10;" x1="334.327" y1="383.388" x2="334.327" y2="431.722"/>
					
						<line style="fill:#FFFFFF;stroke:#263238;stroke-linecap:round;stroke-linejoin:round;stroke-miterlimit:10;" x1="334.327" y1="339.489" x2="334.327" y2="376.737"/>
				</g>
				<g>
					
						<line style="fill:#FFFFFF;stroke:#263238;stroke-linecap:round;stroke-linejoin:round;stroke-miterlimit:10;" x1="358.988" y1="433.052" x2="358.988" y2="346.584"/>
					
						<line style="fill:#FFFFFF;stroke:#263238;stroke-linecap:round;stroke-linejoin:round;stroke-miterlimit:10;" x1="376.062" y1="373.633" x2="376.062" y2="394.474"/>
					
						<line style="fill:#FFFFFF;stroke:#263238;stroke-linecap:round;stroke-linejoin:round;stroke-miterlimit:10;" x1="376.062" y1="335.055" x2="376.062" y2="365.651"/>
					
						<line style="fill:#FFFFFF;stroke:#263238;stroke-linecap:round;stroke-linejoin:round;stroke-miterlimit:10;" x1="397.878" y1="419.306" x2="397.878" y2="362.104"/>
					
						<line style="fill:#FFFFFF;stroke:#263238;stroke-linecap:round;stroke-linejoin:round;stroke-miterlimit:10;" x1="397.878" y1="432.166" x2="397.878" y2="424.184"/>
					
						<line style="fill:#FFFFFF;stroke:#263238;stroke-linecap:round;stroke-linejoin:round;stroke-miterlimit:10;" x1="452.418" y1="364.321" x2="452.418" y2="397.578"/>
					
						<line style="fill:#FFFFFF;stroke:#263238;stroke-linecap:round;stroke-linejoin:round;stroke-miterlimit:10;" x1="433.447" y1="409.107" x2="433.447" y2="417.089"/>
					
						<line style="fill:#FFFFFF;stroke:#263238;stroke-linecap:round;stroke-linejoin:round;stroke-miterlimit:10;" x1="433.447" y1="351.462" x2="433.447" y2="403.786"/>
					
						<line style="fill:#FFFFFF;stroke:#263238;stroke-linecap:round;stroke-linejoin:round;stroke-miterlimit:10;" x1="494.627" y1="342.15" x2="494.627" y2="376.294"/>
					
						<line style="fill:#FFFFFF;stroke:#263238;stroke-linecap:round;stroke-linejoin:round;stroke-miterlimit:10;" x1="485.616" y1="415.759" x2="485.616" y2="382.945"/>
					
						<line style="fill:#FFFFFF;stroke:#263238;stroke-linecap:round;stroke-linejoin:round;stroke-miterlimit:10;" x1="539.682" y1="423.297" x2="539.682" y2="373.633"/>
					
						<line style="fill:#FFFFFF;stroke:#263238;stroke-linecap:round;stroke-linejoin:round;stroke-miterlimit:10;" x1="528.774" y1="383.388" x2="528.774" y2="431.722"/>
					
						<line style="fill:#FFFFFF;stroke:#263238;stroke-linecap:round;stroke-linejoin:round;stroke-miterlimit:10;" x1="528.774" y1="339.489" x2="528.774" y2="376.737"/>
				</g>
			</g>
		</g>
	</g>
</g>
<g id="Character_3">
	<g>
		<polygon style="fill:#FFFFFF;stroke:#263238;stroke-linecap:round;stroke-linejoin:round;stroke-miterlimit:10;" points="
			539.282,249.642 513.06,249.642 507.816,247.259 540.027,247.259 		"/>
		<path style="fill:#FFFFFF;stroke:#263238;stroke-linecap:round;stroke-linejoin:round;stroke-miterlimit:10;" d="M549.799,247.734
			c0,0-2.914-1.874-4.996-3.539c-1.431-1.145-3.846-2.191-5.216-2.734c-0.631-0.25-1.336-0.197-1.922,0.146
			c-1.591,0.932-4.88,2.754-6.274,2.754c-1.873,0-2.914,1.665-0.416,2.498c2.498,0.833,5.293-0.791,5.293-0.791
			s-3.747,3.955-4.996,4.163c-1.249,0.208-11.482-0.581-11.274,0.46c0.208,1.041,11.065,2.871,13.563,3.287
			c2.498,0.416,5.621,0.624,6.87,0c1.249-0.625,3.539-1.457,3.539-1.457l3.955,0.625L549.799,247.734z"/>
		<g>
			<path style="fill:#FFFFFF;stroke:#263238;stroke-linecap:round;stroke-linejoin:round;stroke-miterlimit:10;" d="
				M564.301,148.004c0,0-5.805,10.194-6.23,12.601c-0.425,2.407,0.142,5.38,0.142,5.946s-4.247,4.248-4.389,5.239
				c-0.142,0.991,2.832,2.549,2.832,2.549s2.548,9.203,2.973,10.477c0.425,1.274,1.982,1.557,2.69,1.557s5.522-1.557,5.522-1.557
				l2.832,6.796l16.707-9.628l-1.982-6.088c0,0,7.645-9.486,7.221-14.3c-0.425-4.814-3.964-12.035-12.035-14.441
				C572.513,144.747,566.708,146.305,564.301,148.004z"/>
			<path style="fill:#263238;stroke:#263238;stroke-linecap:round;stroke-linejoin:round;stroke-miterlimit:10;" d="
				M592.618,161.596c-0.425-4.814-3.964-12.035-12.035-14.441c-8.07-2.407-13.875-0.849-16.282,0.85c0,0-1.311,2.302-2.732,4.976
				l0.467-0.021c0,0,9.911-1.558,10.76-0.142c0.849,1.416-1.699,6.371-1.699,6.371s4.106,0.85,3.964,2.124
				c-0.142,1.274-2.124,3.823-0.849,4.531c1.274,0.708,2.265,0.283,2.548-0.708c0.283-0.991,4.106-2.407,5.38,1.841
				c1.274,4.247-5.239,7.079-5.239,7.079s3.995,2.722,8.631,1.669C586.544,174.44,593.01,166.035,592.618,161.596z"/>
			<path style="fill:#263238;" d="M562.886,166.339c0,0.977-0.317,1.77-0.708,1.77s-0.708-0.792-0.708-1.77
				c0-0.977,0.317-1.77,0.708-1.77S562.886,165.361,562.886,166.339z"/>
			<path style="fill:none;stroke:#263238;stroke-linecap:round;stroke-linejoin:round;stroke-miterlimit:10;" d="M559.771,162.445
				c0,0,2.407-2.973,4.955-0.142"/>
			<path style="fill:none;stroke:#263238;stroke-linecap:round;stroke-linejoin:round;stroke-miterlimit:10;" d="M559.204,175.471
				c0,0,2.265,0.425,4.672-1.982"/>
		</g>
		<path style="fill:#263238;stroke:#263238;stroke-linecap:round;stroke-linejoin:round;stroke-miterlimit:10;" d="M565.717,197.275
			c0,0-4.389,3.823-5.097,6.654c-0.708,2.832-2.265,13.026-1.557,15.149c0.708,2.124,7.504-5.805,7.504-5.805l-4.247-8.92
			c0,0,4.106-4.106,4.247-4.672C566.708,199.115,565.717,197.275,565.717,197.275z"/>
		<path style="fill:#FFFFFF;stroke:#263238;stroke-linecap:round;stroke-linejoin:round;stroke-miterlimit:10;" d="M587.379,180.002
			c0,0-21.804,13.875-21.945,14.583s0.708,8.212,0.708,8.212l23.786-18.831L587.379,180.002z"/>
		<path style="fill:#FFFFFF;stroke:#263238;stroke-linecap:round;stroke-linejoin:round;stroke-miterlimit:10;" d="M601.766,417.332
			c0,0,1.986,13.504,0.794,14.497c-1.191,0.993-9.135,1.986-11.915,1.787c-2.78-0.199-15.291,0.794-17.079,0.794
			s0.199-2.979,1.39-3.575c1.191-0.596,6.951-4.369,8.341-6.355c1.39-1.986,4.17-5.958,4.17-5.958L601.766,417.332z"/>
		<path style="fill:#263238;stroke:#263238;stroke-linecap:round;stroke-linejoin:round;stroke-miterlimit:10;" d="M599.116,291.03
			l-0.397,37.334c0,0,0.794,27.802,2.185,35.547c1.39,7.745-0.527,43.888,0.664,47.661c1.192,3.773,0.993,8.341,0.993,8.341
			s-6.156,0.596-8.142,0.794c-1.986,0.199-4.369,0-4.369,0s3.903-46.072,1.52-63.746c-2.383-17.674,2.184-40.71,2.184-50.838
			C593.754,295.995,599.116,291.03,599.116,291.03z"/>
		<path style="fill:#FFFFFF;stroke:#263238;stroke-linecap:round;stroke-linejoin:round;stroke-miterlimit:10;" d="M574.162,416.14
			c0,0-1.986,5.56-3.574,6.951c-1.589,1.39-9.334,5.958-12.908,6.951c-3.575,0.993-0.993,2.979,0,3.574
			c0.993,0.596,13.703,1.192,23.235,0.596c9.532-0.596,13.305-0.397,14.1-1.589c0.794-1.191-0.993-15.49-0.993-15.49L574.162,416.14
			z"/>
		<path style="fill:#263238;stroke:#263238;stroke-linecap:round;stroke-linejoin:round;stroke-miterlimit:10;" d="M565.157,282.689
			c0,0,3.575,33.958,3.575,52.03c0,18.072,3.596,48.922,4.39,52.695c0.794,3.773,2.033,24.754,2.033,24.754s-2.78,2.78-2.582,4.17
			c0.199,1.39,0.199,2.383,0.199,2.383s1.191,1.39,8.738,1.787c7.546,0.397,12.908,0.199,12.908,0.199s4.3-31.178,1.917-48.058
			c-2.383-16.88-1.589-21.447-1.787-30.384c-0.199-8.936,2.979-35.15,2.979-35.15s4.369-12.511,4.766-16.483
			c0.397-3.972,0.199-9.334,0.199-9.334L565.157,282.689z"/>
		<g>
			<path style="fill:#92E3A9;stroke:#263238;stroke-linecap:round;stroke-linejoin:round;stroke-miterlimit:10;" d="
				M589.503,182.692c0,0-22.228,17.273-23.503,18.972c-1.274,1.699-7.504,16.99-7.787,22.229
				c-0.283,5.239,0.283,30.157,0.425,30.865c0.142,0.708,0.566,41.201,0.566,41.201s13.743,2.396,27.051,2.255
				c13.309-0.142,20.795-5.473,20.795-5.473s-2.54-28.214-3.39-32.603c-0.849-4.389-0.991-10.619-0.991-10.619
				s2.549-23.219,0.708-35.82c-1.84-12.601-5.238-19.963-7.221-22.512C594.175,188.638,592.335,184.249,589.503,182.692z"/>
			<polyline style="fill:#92E3A9;stroke:#263238;stroke-linecap:round;stroke-linejoin:round;stroke-miterlimit:10;" points="
				561.08,268.577 575.281,269.222 574.636,272.127 565.921,271.481 			"/>
			<polyline style="fill:#92E3A9;stroke:#263238;stroke-linecap:round;stroke-linejoin:round;stroke-miterlimit:10;" points="
				566.079,212.887 574.636,202.089 573.667,197.893 579.154,197.57 592.065,188.21 			"/>
			
				<line style="fill:#92E3A9;stroke:#263238;stroke-linecap:round;stroke-linejoin:round;stroke-miterlimit:10;" x1="561.08" y1="219.195" x2="564.269" y2="215.17"/>
		</g>
		<path style="fill:#92E3A9;stroke:#263238;stroke-linecap:round;stroke-linejoin:round;stroke-miterlimit:10;" d="M576.619,205.062
			c0,0-3.256,6.513-2.832,10.052c0.425,3.539,3.681,30.44,3.681,30.44l-29.752,0.466l-0.991,12.176c0,0,20.124,3.781,32.584,3.357
			c12.459-0.425,14.866-0.849,15.291-1.699c0.425-0.849,1.982-30.865,1.416-36.104c-0.566-5.239-1.557-8.353-2.124-9.628"/>
	</g>
</g>
<g id="Character_2">
	<g>
		<g>
			<path style="fill:#FFFFFF;stroke:#263238;stroke-linecap:round;stroke-linejoin:round;stroke-miterlimit:10;" d="
				M458.977,170.982c0,0-1.855,4.824-1.484,6.184c0.371,1.36,1.361,4.824,0.247,6.184c-1.113,1.361-2.473,2.103-1.855,3.339
				c0.618,1.237,3.216,2.103,3.216,2.103s2.226,8.41,3.587,8.905c1.361,0.495,2.968-1.113,5.071-1.237
				c2.102-0.124,1.731-9.152,2.473-15.336c0.742-6.184-2.226-9.152-5.813-10.265S458.977,170.982,458.977,170.982z"/>
			<path style="fill:none;stroke:#263238;stroke-linecap:round;stroke-linejoin:round;stroke-miterlimit:10;" d="M460.338,189.163
				c0,0,1.608-0.124,2.226-1.608"/>
			<path style="fill:#263238;" d="M460.83,180.515c0.081,0.85-0.102,1.563-0.408,1.592c-0.306,0.029-0.619-0.637-0.7-1.487
				c-0.081-0.85,0.102-1.563,0.408-1.592C460.436,178.999,460.75,179.665,460.83,180.515z"/>
			<path style="fill:none;stroke:#263238;stroke-linecap:round;stroke-linejoin:round;stroke-miterlimit:10;" d="M458.606,177.413
				c0,0,1.113-1.608,2.597-0.495"/>
		</g>
		<path style="fill:#263238;stroke:#263238;stroke-linecap:round;stroke-linejoin:round;stroke-miterlimit:10;" d="M493.863,332.346
			c0,0-0.195,14.604,1.363,20.25s6.231,12.267,7.594,29.207c1.363,16.94,1.752,28.818,2.921,31.933
			c1.168,3.115,2.726,7.01,3.115,10.125c0.389,3.115,0.195,9.93,0.195,9.93h-4.284l-0.974-5.452l-1.168,5.647
			c0,0-10.709,0.195-11.878,0s0.389-1.947,1.947-3.505c1.558-1.558,4.284-9.346,5.063-11.294c0.779-1.947-0.272-4.904-0.584-6.231
			c-1.558-6.62-6.036-18.693-7.983-24.924c-1.947-6.231-2.726-11.878-3.115-14.214c-0.389-2.337-5.257-24.145-5.841-26.092
			c-0.584-1.947-1.558-17.135-1.558-17.135L493.863,332.346z"/>
		<path style="fill:#263238;stroke:#263238;stroke-linecap:round;stroke-linejoin:round;stroke-miterlimit:10;" d="M465.24,328.856
			c0,0,0.779,18.693,2.531,27.65c1.752,8.957,7.983,46.342,7.983,54.325s-6.231,15.772-6.231,15.772s-3.31,2.726-5.647,3.31
			c-2.337,0.584-2.921,2.726-1.363,3.31c1.558,0.584,15.772,1.363,17.135,0.389s3.699-6.231,4.089-6.815
			c0.389-0.584,0.195,7.01,0.195,7.01h3.7c0,0,0.779-5.647,1.168-9.736c0.389-4.089-0.779-7.594-1.752-11.294
			c-0.974-3.699-1.168-7.399-1.168-7.399s0.195-15.772,0.974-20.835s3.894-16.745,0.974-26.481
			c-2.921-9.736-3.31-11.488-3.31-12.656s0-14.604,0-14.604L465.24,328.856z"/>
		<g>
			<path style="fill:#FFFFFF;stroke:#263238;stroke-linecap:round;stroke-linejoin:round;stroke-miterlimit:10;" d="M428.748,229.3
				c0,0-2.88-3.095-4.12-3.66c-1.24-0.566-5.759-0.156-7.315-1.271c-1.556-1.115-1.589,0.733-0.307,2.006
				c1.282,1.273,3.937,1.755,3.937,1.755s-5.484-0.315-7.132,0.634c-1.647,0.949-3.195,2.389-0.798,2.106s2.397-0.284,2.397-0.284
				l1.731,0.465c0,0-2.902,0.747-3.643,1.291c-0.741,0.544-1.575,1.435-1.479,1.907s1.085,0.664,1.437,0.461
				c0.352-0.203,1.967-0.958,1.967-0.958l2.581-0.198c0,0-2.509,1.035-2.791,1.257c-0.283,0.221-1.349,1.421-1.197,1.685
				c0.152,0.264,1.253,0.04,1.693-0.214c0.44-0.253,1.352-0.603,1.352-0.603l1.586-0.094c0,0-1.879,0.907-2.167,1.424
				c-0.288,0.517,0.003,0.819,0.563,0.672c0.56-0.147,2.346-0.707,2.346-0.707l1.85-0.246c0,0,2.418,0.13,2.784,0.154
				c0.365,0.024,1.192,0.544,2.728,0.362c1.536-0.182,2.429-0.462,2.674-0.545c0.245-0.083,2.634,0.708,2.634,0.708l1.571-6.119
				L428.748,229.3z"/>
			<path style="fill:none;stroke:#263238;stroke-linecap:round;stroke-linejoin:round;stroke-miterlimit:10;" d="M420.942,228.129
				c0,0,0.718,1.502,0.993,2.691c0.275,1.189,3.645,1.649,4.546,1.892"/>
			
				<line style="fill:none;stroke:#263238;stroke-linecap:round;stroke-linejoin:round;stroke-miterlimit:10;" x1="417.469" y1="230.288" x2="419.34" y2="235.772"/>
		</g>
		<polygon style="fill:#92E3A9;stroke:#263238;stroke-linecap:round;stroke-linejoin:round;stroke-miterlimit:10;" points="
			433.629,231.289 431.316,241.011 458.603,255.92 461.821,242.445 		"/>
		<path style="fill:#B2B2B2;stroke:#263238;stroke-linecap:round;stroke-linejoin:round;stroke-miterlimit:10;" d="M468.217,207.916
			c0,0-13.832,15.459-13.506,22.293c0.325,6.834,5.37,22.13,5.37,22.13s-4.556,53.374-4.556,54.35
			c0,0.976-2.441,26.524-2.441,26.524s7.16,0.814,16.761,1.79c9.601,0.976,20.666,1.953,25.71,0.163
			c5.044-1.79,11.553-3.58,12.042-3.905c0.488-0.326-2.604-24.409-3.743-34.009c-1.139-9.601-0.976-13.506-3.092-27.175
			c-2.115-13.669-5.37-23.107-5.37-23.107s2.441-26.85,2.441-32.057c0-5.207-9.438-6.997-16.435-8.95
			C474.401,204.01,468.217,207.916,468.217,207.916z"/>
		<path style="fill:#92E3A9;stroke:#263238;stroke-linecap:round;stroke-linejoin:round;stroke-miterlimit:10;" d="M467.078,205.963
			c0,0-3.58,17.249-4.882,27.826c-1.302,10.577-1.465,52.56-1.465,52.56s15.133,5.045,23.595,3.743
			c8.462-1.302,17.249-4.068,19.69-6.021c0,0-1.627-13.669-3.092-21.48c-1.465-7.811-4.068-17.249-4.068-17.9
			c0-0.651,1.953-26.199,1.79-30.918c-0.163-4.719-3.58-6.021-12.855-9.275C476.516,201.244,469.682,203.034,467.078,205.963z"/>
		<path style="fill:#263238;stroke:#263238;stroke-linecap:round;stroke-linejoin:round;stroke-miterlimit:10;" d="M463.43,159.109
			c0,0-7.668,4.081-8.658,7.544c-0.989,3.463,9.647,6.679,10.884,7.668c1.237,0.989,0.495,8.41,0.371,13.357
			c-0.124,4.947-1.237,19.541,0.989,23.004c2.226,3.463,9.276,8.905,19.665,8.534c10.389-0.371,13.481-2.597,14.099-8.781
			c0.618-6.184,0.495-9.152-1.484-12.986c-1.979-3.834-2.35-3.216-5.318-9.152c-2.968-5.937-2.226-16.449-5.813-22.633
			S473.572,152.43,463.43,159.109z"/>
		<polygon style="fill:#FFFFFF;stroke:#263238;stroke-linecap:round;stroke-linejoin:round;stroke-miterlimit:10;" points="
			435.733,248.865 409.511,248.865 404.267,246.481 440.977,246.481 		"/>
		<path style="fill:#FFFFFF;stroke:#263238;stroke-linecap:round;stroke-linejoin:round;stroke-miterlimit:10;" d="M446.25,246.97
			c0,0-2.278-1.465-3.905-2.766c-1.119-0.895-3.006-1.713-4.077-2.137c-0.493-0.195-1.044-0.154-1.502,0.114
			c-1.243,0.728-3.814,2.153-4.904,2.153c-1.465,0-2.278,1.302-0.325,1.953c1.953,0.651,4.137-0.618,4.137-0.618
			s-2.929,3.092-3.905,3.255c-0.976,0.163-4.882,0.814-4.719,1.627c0.163,0.814,4.556,0.976,6.509,1.302
			c1.953,0.326,4.394,0.488,5.37,0c0.976-0.488,2.766-1.139,2.766-1.139l3.092,0.488L446.25,246.97z"/>
		<path style="fill:#92E3A9;stroke:#263238;stroke-linecap:round;stroke-linejoin:round;stroke-miterlimit:10;" d="M470.821,221.422
			l-2.441,28.802c0,0-2.766-0.814-3.417-0.651c-0.651,0.163-0.976,1.139-0.976,1.139l-18.876-4.882l-1.302,7.648
			c0,0,31.406,12.693,33.521,13.018c2.115,0.325,3.905-0.163,4.068-1.302c0.163-1.139,4.882-41.82,4.882-41.82"/>
	</g>
</g>
<g id="Floor">
	
		<line style="fill:#FFFFFF;stroke:#263238;stroke-linecap:round;stroke-linejoin:round;stroke-miterlimit:10;" x1="25.062" y1="433.164" x2="720.066" y2="433.164"/>
</g>
</svg>
